/* XPM */
static char *f45c28cd8bcc4fab8cdf61ad195034a6WEihhnJp92WoeGGW[] = {
/* columns rows colors chars-per-pixel */
"54 63 204 2 ",
"   c #2D1D0D",
".  c #33210F",
"X  c #322112",
"o  c #3A2511",
"O  c #3D2913",
"+  c #452D15",
"@  c #4A2E14",
"#  c #453017",
"$  c #4A3117",
"%  c #473119",
"&  c #4C3419",
"*  c #4E3F1B",
"=  c #543814",
"-  c #513619",
";  c #543A1B",
":  c #5A3D1D",
">  c #653D19",
",  c #6C3E19",
"<  c #513F22",
"1  c #264922",
"2  c #1E7234",
"3  c #396C30",
"4  c #5D411E",
"5  c #63441F",
"6  c #6B421D",
"7  c #72421B",
"8  c #7D491E",
"9  c #5F4323",
"0  c #564C2F",
"q  c #524C31",
"w  c #624522",
"e  c #664925",
"r  c #6B4A24",
"t  c #684B2C",
"y  c #774A21",
"u  c #724F25",
"i  c #69572A",
"p  c #745126",
"a  c #7B5126",
"s  c #755229",
"d  c #7B552A",
"f  c #7D592C",
"g  c #655B3A",
"h  c #715932",
"j  c #7A6439",
"k  c #5D5E40",
"l  c #646544",
"z  c #736B45",
"x  c #6C724F",
"c  c #78734C",
"v  c #757A54",
"b  c #80471C",
"n  c #844B1E",
"m  c #894E1E",
"M  c #877A1C",
"N  c #854E21",
"B  c #884F20",
"V  c #845223",
"C  c #8D5322",
"Z  c #8D5A26",
"A  c #825629",
"S  c #845B2C",
"D  c #8B5D2B",
"F  c #915523",
"G  c #945A25",
"H  c #9A5E27",
"J  c #925E2A",
"K  c #895F30",
"L  c #A15F26",
"P  c #8D622E",
"I  c #9C6027",
"U  c #93622D",
"Y  c #9C632A",
"T  c #9C682D",
"R  c #8B6331",
"E  c #85693B",
"W  c #8D6C3B",
"Q  c #946832",
"!  c #956934",
"~  c #9C6C32",
"^  c #99763D",
"/  c #A2652A",
"(  c #A46B2D",
")  c #AA6C2D",
"_  c #B06F2E",
"`  c #A7702F",
"'  c #AB712F",
"]  c #A36E31",
"[  c #A47134",
"{  c #AC7432",
"}  c #AB7937",
"|  c #A47A3B",
" . c #B37432",
".. c #B87733",
"X. c #B47A35",
"o. c #BB7D36",
"O. c #B27B39",
"+. c #BD7E38",
"@. c #C17E37",
"#. c #8C7343",
"$. c #987A46",
"%. c #817D51",
"&. c #A27D44",
"*. c #AC7C52",
"=. c #7B9955",
"-. c #8C831B",
";. c #A4843E",
":. c #BA8037",
">. c #BD8239",
",. c #B9833C",
"<. c #C08237",
"1. c #C4843B",
"2. c #CA863B",
"3. c #C6893C",
"4. c #CD8C3E",
"5. c #D28C3E",
"6. c #DA933F",
"7. c #F3CF11",
"8. c #FAE204",
"9. c #FFEA00",
"0. c #8C8455",
"q. c #978C59",
"w. c #9D905A",
"e. c #AA8247",
"r. c #BA8943",
"t. c #B38D4B",
"y. c #B8914C",
"u. c #A88C54",
"i. c #A9895A",
"p. c #A9945A",
"a. c #A9955C",
"s. c #B79757",
"d. c #868D62",
"f. c #8D9264",
"g. c #979968",
"h. c #A39863",
"j. c #AB9D65",
"k. c #9BA775",
"l. c #A7A16A",
"z. c #ADA46B",
"x. c #BBA664",
"c. c #AAAB73",
"v. c #A7AF79",
"b. c #B4AE73",
"n. c #AFB077",
"m. c #B4B379",
"M. c #B6B97E",
"N. c #BEBB7C",
"B. c #C58840",
"V. c #D38F40",
"C. c #C79849",
"Z. c #D59141",
"A. c #DA9442",
"S. c #D49C47",
"D. c #DE9945",
"F. c #E39B46",
"G. c #E79F48",
"H. c #D4A24B",
"J. c #D9AF4D",
"K. c #C8A55B",
"L. c #D9A957",
"P. c #DBB151",
"I. c #EDA047",
"U. c #ECA249",
"Y. c #F3A84C",
"T. c #E3AA56",
"R. c #E8B05B",
"E. c #D9AB66",
"W. c #CAB06A",
"Q. c #D2B469",
"!. c #C5BE7C",
"~. c #D8BA73",
"^. c #E3BB6A",
"/. c #F3CC5B",
"(. c #D6C67C",
"). c #E1C968",
"_. c #EBD66B",
"`. c #F3EB74",
"'. c #A9BB84",
"]. c #A9BC86",
"[. c #B4BE83",
"{. c #B9BE82",
"}. c #C9AF99",
"|. c #B7C287",
" X c #BBC385",
".X c #B4C48A",
"XX c #BCC689",
"oX c #BCCA8D",
"OX c #B9CC91",
"+X c #BED295",
"@X c #BCD599",
"#X c #C8C986",
"$X c #C2CC8D",
"%X c #D2D28B",
"&X c #C2D495",
"*X c #CAD491",
"=X c #C8D897",
"-X c #C1D79A",
";X c #C3DB9D",
":X c #C3DFA1",
">X c #DECBBB",
",X c #E7C8A7",
"<X c #EBE8E5",
"1X c white",
/* pixels */
":X:X:X:X:X:X:X:X:X:X:X:X:X:X:X:X:X:X:X:X:X:X:X:X:X2 :X:X:X:X:X:X:X:X:X:X:X2 :X:X2 :X:X:X:X:X:X:X:X:X:X:X:X:X",
":X:X=.:X:X:X:X:X:X:X:X:X:X:X:X:X:X:X:X:X:X2 :X:X2 :X:X:X:X:X:X:X:X:X:X:X:X:X2 :X2 :X:X:X:X:X2 :X:X:X:X:X:X:X",
":X:X:X:X:X:X:X:X:X2 :X:X:X:X:X:X=.:X:X:X:X:X2 :X2 :X:X2 :X:X:X:X:X:X:X:X:X:X2 :X:X:X:X:X:X:X:X:X:X:X:X:X:X:X",
":X:X:X:X:X:X:X:X:X:X:X:X:X:X:X:X:X:X:X:X:X:X2 :X:X:X:X:X:X:X:X:X:X:X:X:X:X:X:X:X:X:X:X:X:X:X:X:X:X:X:X:X:X:X",
":X:X:X:X:X2 :X:X:X:X:X:X:X:X:X:X:X:X:X-.+X[.n 1.+.C F n C./.6./ c.OX<X+X:X:X:X:X:X:X:X:X:X:X:X:X:X:X:X2 :X:X",
":X2 :X:X2 :X:X:X:X:X:X:X:X:X:X:X:X:X:XW.} Z + e [ { S S f ^ S.:.~ t - r.*X:X:X:X:X2 :X:X:X:X:X2 :X:X2 :X:X:X",
":X:X2 :X2 :X:X:X:X1X:X:X:X:X:X:X:X:X~.3.y @ . 6 Y Z & % 6 U Q 6 & ; N / T.#X:X:X:X:X:X:X:X:X:X:X2 :X2 :X:X:X",
":X:X2 :X:X:X:X:X1X9.1X:X:X2 :X:X=X~.~ G a x v w.a.w.v x 0.a.q.v x 0.u.> A i.m.:X:X:X:X:X:X:X:X:X2 :X:X:X:X:X",
":X:X:X:X:X:X:X:X:X1X:X:X:X:X:X:X#X2.@ d h.:X:X:X:X2 :X:X:X:X:X:X:X:X@Xq X 6 *.:X:X:X:X:X:X:X:X:X:X:X:X:X:X:X",
":X:X:X:X:X:X:X:X:X:X:X:X:X:X:X:X#XC C b.:X2 :X:X2 :X:X:X:X:X:X:X2 :X:X:XW Y #.:X:X:X:X:X:X:X:X:X:X:X:X:X:X:X",
":X:X:X:X:X:X:X:X:X:X:X:X:X-.:X!.C.@ n.-X:X:X2 :X2 :X:X:X:X:X:X:X:X:X:X:XoX$.o 0 W m.:X:X:X:X=.:X:X:X:X:X:X:X",
":X:X:X:X:X:X:X:X:X:X:X:X:X:Xb.! r d.:X:X:X:X2 :X:X:X:X:X:X:X:X:X:X:X:X:X:X].k O n N.:X:X:X:X:X:X:X:X:X:X:X:X",
":X:X:X:X:X:X:X:X:X:X:X:X;X#XX.9 v :X:X:X:X:X:X:X:X:X:X:X:X:X:X:X:X:X:X:X:X:XOXg V W.*X:X:X:X:X:X:X:X-.:X:X:X",
":X:X:X:X:X:X:X:X:X:X:X2 *XF.( f.:X:X:X:X:X:X:X:X:X:X:X:X:X:X:X:X:X:X-.:X:X:X:X:XS +.E.:X2 :X:X:X:X:X:X:X:X:X",
":X:X:X:X:X:X:X2 :X:X2 :X*XG.6 v :X:X:X:X:X:X:X:X:X1X:X:X:X:X:X:X:X:X:X:X:X:X:X@X# + z 2 :X:X:X:X:X:X:X:X:X:X",
":X:X-.:X:X:X:X:X2 :X2 :X&X..0..X:X:X:X:X:X:X:X:X1X9.1X:X:X:X=.:X:X:X:X:X:X:X:X@Xk.* z 2 :X:X:X:X:X:X:X:X:X:X",
":X:X:X:X:X:X:X:X2 :X{.g.x > ].:X:X:X:X:X:X:X:X:X:X1X:X:X:X:X:X:X:X:X:X:X:X:X:X:X:Xi d g.(.=X:X:X:X:X:X:X:X:X",
":X:X:X:X:X:X:X:X:X:Xe.6 . q ].:X:X:X:X:X:X:X:X:X:X:X:X:X:X:X:X:X:X:X:X:X:X:X:X:X:Xj.6 $ 2.#X:X:X:X:X:X:X:X:X",
":X:X:X:X:X:X:X:X:X:Xs.> & @X;X:X:X:X2 :X:X:X:X:X:X:X:X:X:X:X:X:X:X:X:X:X=.:X:X:X:X:Xl.O C M.:X:X:X:X:X:X:X:X",
":X:X:X:X:X:X:X:X=X^.R g ].:X:X:X:X:X:X:X:X:X:X:X:X:X:X:X:X:X:X:X:X2 :X:X:X:X:X:X:X:X@Xg.F XX:X:X:X:X:X:X2 :X",
":X:X:X:X:X:X:X:X-X@.: x :X:X=.:X:X:X:X:X:X:X:X:X:X:X:X:X:X2 :X:X2 :X:X:X:X:X:X:X:X:X:X@X- K.%X:X1X:X:X:X:X:X",
":X:X:X:X2 :X:X:X+XU > c :X=.:X:X:X:X:X:X:X:X2 :X:X:X:X:X:X:X2 :X2 :X:X:X:X:X:X=.:X:X:XOX+ [ Q.1X9.1X:X:X:X:X",
":X:X:X:X:X:X:X:X&XJ F p.:X:X:X:X:X:X:X:X:X:X:X:X:X:X:X:X:X:X2 :X:X:X:X:X:X:X:X:X:X:X:X+XY Z a.:X1X:X:X:X:X:X",
":X:X:X:X:X:X:X:X;X: g.&X:X:X:X:X:X:X:X:X:X:X:X:X:X:X:X:X:X:X:X:X:X:X:X:X:X=.:X:X:X:X:X@XOX9 w.:X:X:X:X:X:X:X",
":X:X:X:X:X:X:X*XQ.O k.:X:X:X:X:X:X:X:X:X:X:X:X2 :X:X:X:X:X:X:X:X:X:X:X:X:X:X:X:X:X:X:X2 :Xq ! (.:X:X:X:X:X:X",
":X:X1X:X:X:X:X!.o.> k.;X:X:X:X:X:X:X:X2 :X:X2 :X:X:X:X:X:X:X:X:X:X:X:X:X:X:X:X:X:X:X:X:X:Xg J C.:X:X:X:X:X:X",
":X1X9.1X:X:X:X>XC G m.:X:X:X-.:X:X:X:X:X2 :X2 :X:X:X:X:X:X:X:X:X:X:X:X:X:X:X:X:X:X:X:X:X:X&.F ^ :X:X:X:X:X:X",
":X:X1X:X:X:X1X7.C C n.:X:X:X:X:X:X:X:X:X2 :X:X:X:X:X:X=.:X:X:X:X:X-.:X:X:X:X:X:X:X:X:X:X:X&.C e.:X:X:X:X:X:X",
":X:X:X:X:X:XN.E.9 c.+X:X:X:X:X:X:X:X:X:X:X:X:X:X:X:X:X:X:X:X:X:X:X:X:X:X:X:X:X:X:X:X:X:X:XM %.R ^.;X:X:X2 :X",
":X:X:X;Xz.f.E A 4 :X:X:X:X:X:X:X:X:X:X:X:X:X:X:X:X:X:X:X:X:X:X:X:X:X:X:X:X2 :X:X:X:X:X:X:X'.l ; U a.OX2 :X:X",
":X:X:Xz.C 6 & & s  X$XXX|..X|.XX&X:X:X:X:X:X:X:X:X1X:X:X:X:X:X:X:X:X:X:X:X:X@X$X|.XXXX.X.Xh ; = : V u.3 :X:X",
":X:X:XF F F F H X.X.X.( C f C / s.:X:X:X:X:X:X:X1X9.1X:X:X:X:X:X:X:X:X:X:X:X[.X.G ) ] d f C F H X.H C F :X:X",
":X:X=.z.F - , ) +.+.Y V S [ X./ ( y.^ &.C.t.#.W t.~.L.K.).`._.Q._.).K.K.C.$.W O.X.Q d f [ { X...H F i.|.:X:X",
":X:X:X;Xz.d.t V ' (  .U R <...Z a Q B _ X.P s Z 3.C.| C.H.J.P.| ;.C.H.H.[ d R +.[ D U ' ) 1.~ f j.j.OX:X:X:X",
":X:X:X:X:X:X1 o 7 , Z S p U 8 A R A Y ) Y d R X.B.| s r.>.>.C.S 6 ~ 6.,.Q S U ) p 6 N P 6 Z = g :X:X:X:X:X:X",
":X:X:X:X:X=X%.O o O . + $ # O A ' C { Y N G { X.U r d ] { >.,.G n T ` C ' T m C - O . o o o   j =X;X:X:X:X:X",
":X:X:X:X:X$.1.+.e p s 5 # # # & - $ & - - - ; : - & & - ; ; : - = = ; & ; - & & # w d p r u e R L.*X:X:X:X:X",
":X:X:X:X:XK L 1.1.Z ~ J 6 e e 9 d O.P u w 4 4 4 w w 5 5 : 9 : 9 9 4 4 4 6 r e e e a Z U >.,.D U G.*X:X:X:X:X",
":X:X:X:X:Xr.F H Z.( :.2.' ~ Q D T 5.A.~ s d s s u p d d d s s p p p d P I G S f Q G m I U.4. ._ o.$X:X:X=.:X",
":X:X:X:X:XR...G { { 5.U.D.o.>.( n C A.{ s f S S R R f d S D P R R R P X.I C C R X.) C I 5.:.5.A.G XX:X:X:X:X",
":X:X:X:X:XL.3.{ { C 1.U.A.X.A...n G X./ V f { X.4.4.C C ( X.X.6.G.4.{ X.G m Y X.} Z.@.F X.X.3.G.D.*X:X:X:X:X",
":X:X:X:X:X[ ) 1.D.5.) ) o.X.F.F.:.` { I C Z X.Y <.U.5.{ { ' I ) Q [ >.5.Z./ G X.H 4.U.2.X.Y H / ) XX:X:X:X:X",
":X:X:X:X:Xl.&.X...U...Y { / ) A.F.:.4./ C ( { G H @.4.>.3...b b Z P  .G.Y.2.T ' F / <.4.X.F C ~ h.+X-.:X:X:X",
":X:X-.:X:X:Xx.X./ 2.:.:.X.m 8  .4.' G...Y >.1.I m H } ) 5.Z./ / X./ G 2.5.>.o.o.G C I X.<.' { t.:X:X:X:X:X:X",
":X:X:X:X:X:XQ.U.Z.G Y V.6.G C ( ` F 5.2.' o.F.) Y X.X.C ..G.F.G.3.T C F C Y 3.D.H ( X.X.A.G.B.y.:X:X:X:X:X:X",
":X:X:X:X:X:X;X,XI ' [ 2.U.A.X.{ ) F G { ( I F.F.2.) Z C F ..G.:.:./ n n ( X.3.G.X.X.` C H ..x.&X:X:X:X:X:X:X",
":X:X:X:X:X:X1X8.}.{ V.@./  .{ 3.:.C I X.` C ) 1.1.o.o.F b I 3.X./ ) <.2.X.T G ) o.] ) ..n T x.:X:X:X:X:X:X:X",
":X:X:X:X:X:X:X1X;Xx.H.6.H G X.G.5.I X.{ G C n ( [ ..U.@.F J X.' C ..U.A.4.../ G ) C  .U. .t.N.:X:X:X:X:X:X:X",
":X:X:X:X:X:X:X:X:X:XK.D.Z.X.5.6.4.X.o.( G H G { Y H Z.U...H X.C n  .Z.X.Z.U.Z.X.C n ) D.T.$X:X:X:X2 :X:X:X:X",
":X:X:X:X:X:X:X:X:X:Xe.T >.X./ C I o.Z.F.F.5.X.X./ m H Z.4.{ ' F m T :.X.D.4.X.X.G C F ] =X;X:X:X:X:X:X:X:X:X",
":X:X:X:X:X:X:X:X:X:X.X^ X.Q d U ( I ) ~ [ 1.X.A.} y C X.>.1.A.4._ ` ` I / { { I 2.Y E |.;X:X:X:X:X:X:X:X:X:X",
":X:X1X:X:X:X:X:X:X:X:Xb.P s a [ X.V N A ~ X.) X.,.} ( ' ( ) 1.U.4.1.:.F G ( I F I.u.v.2 :X:X:X:X:X:X:X:X:X:X",
":X1X9.1X:X:X:X:X:X:X:Xv.j r V / ~ h s [ o.( C e [ 5.[ >./ 8 F 2.} 1.A.G ) ~ n Z 1.M.;X:X:X:X:X:X:X:X:X:X:X:X",
":X:X1X:X:X:X:X:X:X:X:X:X.Xs u u p u r ( [ d p p p r p Z.} a F G u [ A.f u r u u p c.:X:X:X:X:X:X=.:X:X:X2 :X",
":X:X:X:X:X:X:X:X:X:X:X:X2 .Xi - ; ; - p S p p p p u p S 3.3.p p u d P s 4 & - ; v.@X:X:X:X2 :X:X:X:X:X:X:X:X",
":X:X2 :X:X:X:X:X2 :X:X2 :X:Xk.f.c $ # - : 4 4 4 4 4 : - d D ; 4 4 : ; 4 $ % < g.:X2 :X:X2 :X:X:X:X:X:X:X:X:X",
":X:X:X:X:X:X:X:X:X2 :X2 :X:X=.=.=.& & & & & & & & & & & & & $ & & & & & & & =.=.=.=.;X:X:X:X:X:X:X:X:X:X:X:X",
":X:X:X:X:X:X:X:X=.=.=.=.=.=.=.=.=.=.=.=.=.=.=.=.=.=.=.=.=.=.=.=.=.=.=.=.=.=.=.=.=.=.=.=.=.=.=.=.=.:X:X:X:X:X",
":X:X:X:X:X:X:X:X:X:X:X:X=.=.=.=.=.=.=.=.=.=.=.=.=.=.=.=.=.=.=.=.=.=.=.=.=.=.=.=.=.=.=.=.=.:X:X:X:X:X:X1X:X:X",
":X:X:X:X:X:X:X:X:X:X:X:X:X:X:X:X:X:X:X2 =.=.=.=.=.=.=.=.=.=.=.=.=.=.=.=.:X:X:X:X:X:X:X:X:X:X-.:X:X:X1X9.1X:X",
":X:X:X=.:X:X:X:X:X:X:X:X:X2 :X:X:X:X:X2 :X:X:X:X:X:X:X:X:X:X:X:X:X:X:X:X:X:X:X:X:X:X:X:X:X:X:X:X:X:X:X1X:X:X",
":X:X:X:X:X:X:X:X=.:X:X:X:X:X:X:X:X:X:X:X:X:X:X:X:X:X:X=.:X:X:X:X:X:X:X:X:X:X:X:X:X:X:X:X:X:X:X:X:X:X:X:X:X:X",
":X:X:X:X:X:X:X:X:X:X:X:X:X:X:X:X:X:X:X:X:X:X:X:X:X:X:X:X:X:X:X:X:X:X:X:X:X:X:X:X:X:X:X:X:X:X:X:X:X:X:X:X:X:X"
};
