/* XPM */
static char *_cb4570a9d2f42f5dca13720b04c0309lkEScwu5FiWmbGar[] = {
/* columns rows colors chars-per-pixel */
"54 63 16 1 ",
"  c #1E7234",
". c #3ED81E",
"X c #27E119",
"o c #7B9955",
"O c #7D9164",
"+ c #8C831B",
"@ c #FFEA00",
"# c #B08654",
"$ c #8CA270",
"% c #DE9843",
"& c #E1A256",
"* c #7411E3",
"= c #C3DFA1",
"- c #C9C9C7",
"; c #FFFBFD",
": c white",
/* pixels */
"========================= =========== == =============",
"==o================== == =========+=== = ===== =======",
"========= ======o===== = == ========== ===============",
"====================== ===============================",
"===== ============================;================ ==",
"= == ============================;@:===== ===== == ===",
"== = ====:=============+==========:============= = ===",
"== =====:@:== =======================:========== =====",
"=========;=============== ==========:@:===============",
"===================== == ======= ====:================",
"=============+======== = =====================o=======",
"====================== ===============================",
"=== ==============================================+===",
"=========== ======================+========= =========",
"======= == ==============:============== == ==========",
"==+===== = =======+=====:@:===o========== = ==== =====",
"======== ================:=============== ============",
"===================****XX*****XXXXXX==================",
"=================XX***XXXX*****XXXX**======= =========",
"===============*XX***XXXXXX*****XX*****============= =",
"==============*******XXXXXX*************========;=====",
"==== ========X********XXXX*******XX*****X======;=:====",
"============XX*********XX*******XXXX*****X======:=====",
"===========XX******************XXXXXX******===========",
"==========XXX******XX**********XXXXXX*******==========",
"==:=======XX******XXXX**********XXXX********==========",
"=:@:===:=********XXXXXX**********XX******XX**=========",
"==:===:@*********XXXXXX*****************XXXX**========",
"=======***********XXXX*****************XXXXXX*====== =",
"=======*****XX*****XX******************XXXXXX*== == ==",
"=========**XXXX**********XX******XXX*********==== = ==",
"===========*************....****XXXXX******====== ====",
"==o==========o*********XXXXXX***XXXXX*= ==============",
"========== =====*******XXXXXX****XXX== ===============",
"====== == =========:****XXXX*****=== = ===============",
"======= = ========:@:##########===== ======== ========",
"======= ===========:=%########%=======================",
"====================%%%%%%%%%%%=======================",
"===================%%%%%%%%%%%%%====================o=",
"===================%%%%%%%%%%%%%%=========:===========",
"================ ==%%%%%%%%%%%%%%%= =====:@:==========",
"========== =======%%%%%%%%%%%%%%%&=====:==:===========",
"==================%%%%%%%%%%%%%%%%====:@:== ======+===",
"==+===============%%%%%%%%%%%%%%%%=====:==============",
"==================%%%%%%%%%%%%%%%%====================",
"=======:==========%%%%%%%%%%%%%%%%====================",
"======:@:======+==%%%%%%%%%%%%%%%%== =================",
"=======:===========%%%%%%%%%%%%%%==========+==========",
"====================%%%%%%%%%%%%================= ====",
"===================o$%%%%%%%%%%$$=====================",
"===========o=======OOOOOOOOOOOOOOO====================",
"==:==========OOOOOOOOOOOOOOOOOOOOOOOOOOOO== ==========",
"=:@:========OOOOOOOOOOOOOOOOOOOOOOOOOOOO==============",
"==:===============$$$$$$$$-$$$$$$$$=============o=== =",
"============ ======= ====:@:================= ========",
"== ===== == ==============:============== == =========",
"========= = ==========================================",
"========= ============ ========:========== ===========",
"================== == ========:@:=== ==============:==",
"=================== = =========:==============+===:@:=",
"===o========= ===== ===============================:==",
"========o==================o==========================",
"======================================================"
};
