/* XPM */
static char *d162c753b6d847949c6c66b1a963ec35isl5ybD3uLNQ2MnS[] = {
/* columns rows colors chars-per-pixel */
"54 63 6 1 ",
"  c #1E7234",
". c #7B9955",
"X c #8C831B",
"o c #FFEA00",
"O c #C3DFA1",
"+ c white",
/* pixels */
"OOOOOOOOOOOOOOOOOOOOOOOOO OOOOOOOOOOO OO OOOOOOOOOOOOO",
"OO.OOOOOOOOOOOOOOOOOO OO OOOOOOOOOOOOO O OOOOO OOOOOOO",
"OOOOOOOOO OOOOOO.OOOOO O OO OOOOOOOOOO OOOOOOOOOOOOOOO",
"OOOOOOOOOOOOOOOOOOOOOO OOOOOOOOOOOOOOOOOOOOOOOOOOOOOOO",
"OOOOO OOOOOOOOOOOOOXOOOOOOOOOOOOOO+OOOOOOOOOOOOOOOO OO",
"O OO OOOOOOOOOOOOOOOOOOOOOOOOOOOO+o+OOOOO OOOOO OO OOO",
"OO O OOOO+OOOOOOOOOOOOOOOOOOOOOOOO+OOOOOOOOOOOOO O OOO",
"OO OOOOO+o+OO OOOOOOOOOOOOOOOOOOOOOOO+OOOOOOOOOO OOOOO",
"OOOOOOOOO+OOOOOOOOOOOOOOO OOOOOOOOOO+o+OOOOOOOOOOOOOOO",
"OOOOOOOOOOOOOOOOOOOOO OO OOOOOOO OOOO+OOOOOOOOOOOOOOOO",
"OOOOOOOOOOOOOXOOOOOOOO O OOOOOOOOOOOOOOOOOOOOO.OOOOOOO",
"OOOOOOOOOOOOOOOOOOOOOO OOOOOOOOOOOOOOOOOOOOOOOOOOOOOOO",
"OOOOOOOOOOOOOOOOOOOOOOOOOOOOOOOOOOOOOOOOOOOOOOOOOOXOOO",
"OOOOOOOOOOO OOOOOOOOOOOOOOOOOOOOOOXOOOOOOOOO OOOOOOOOO",
"OOOOOOO OO OOOOOOOOOOOOOO+OOOOOOOOOOOOOO OO OOOOOOOOOO",
"OOXOOOOO O OOOOOOOOOOOOO+o+OOO.OOOOOOOOOO O OOOOOOOOOO",
"OOOOOOOO OOOOOOOOOOOOOOOO+OOOOOOOOOOOOOOO OOOOOOOOOOOO",
"OOOOOOOOOOOOOOOOOOOOOOOOOOOOOOOOOOOOOOOOOOOOOOOOOOOOOO",
"OOOOOOOOOOOOOOOOOO OOOOOOOOOOOOOOOOO.OOOOOOO OOOOOOOOO",
"OOOOOOOOOOOOOOOOOOOOOOOOOOOOOOOOO OOOOOOOOOOOOOOOOOO O",
"OOOOOOOOOOOOOO.OOOOOOOOOOOOOO OO OOOOOOOOOOOOOOO+OOOOO",
"OOOO OOOOOOOO.OOOOOOOO OOOOOOO O OOOOOO.OOOOOOO+o+OOOO",
"OOOOOOOOOOOOOOOOOOOOOOOOOOOOOO OOOOOOOOOOOOOOOOO+OOOOO",
"OOOOOOOOOOOOOOOOOOOOOOOOOOOOOOOOOOOOO.OOOOOOOOOOOOOOOO",
"OOOOOOOOOOOOOOOOOOOOOOO OOOOOOOOOOOOOOOOOOO OOOOOOOOOO",
"OO+OOOOOOOOOOOOOOOO OO OOOOOOOOOOOOOOOOOOOOOOOOOOOOOOO",
"O+o+OOO+OOOOOOXOOOOO O OOOOOOOOOOOOOOOOOOOOOOOOOOOOOOO",
"OO+OOO+o+OOOOOOOOOOO OOOOOO.OOOOOXOOOOOOOOOOOOOOOOOOOO",
"OOOOOOO+OOOOOOOOOOOOOOOOOOOOOOOOOOOOOOOOOOOOOXOOOOOO O",
"OOOOOOOOOOOOOOOOOOOOOOOOOOOOOOOOOOOOO OOOOOOOOOO OO OO",
"OOOOOOOOOOOOOOOOOOOOOOOOO+OOOOOOOOOOOOOOOOOOOOOOO O OO",
"OOOOOOOOOOOOOOOOOOOOOOOO+o+OOOOOOOOOOOOOOOOOOOOOO OOOO",
"OO.OOOOOOOOOO.OOOOOOOOOOO+OOOOOOOOOOOOO OOOOOOOOOOOOOO",
"OOOOOOOOOO OOOOOOOOOOOOOOOOOOOOOOOO OO OOOOOOOOOOOOOOO",
"OOOOOO OO OOOOOOOOO+OOOOOOOOOOOOOOOO O OOOOOOOOOOOOOOO",
"OOOOOOO O OOOOOOOO+o+OOOOOOO OOOOOOO OOOOOOOO OOOOOOOO",
"OOOOOOO OOOOOOOOOOO+OOOOO+OOOOOOOOOOOOOOOOOOOOOOOOOOOO",
"OOOOOOOOOOOOOOOOOOOOOOOO+o+OOOOOOOOOOOOOOOOOOOOOOOOOOO",
"OOOOOOOOOOOOOOOOOOOOOOOOO+OOOOOOOOOOOOOOOOOOOOOOOOOO.O",
"OOOOOOOOOOOOOOOOOOOOOOOOOOOOOOOOOOOOOOOOOO+OOOOOOOOOOO",
"OOOOOOOOOOOOOOOO OOOOOOOOOOOOOOOOOO OOOOO+o+OOOOOOOOOO",
"OOOOOOOOOO OOOOOOOOOOOO.OOOOOOOOOOOOOOO+OO+OOOOOOOOOOO",
"OOOOOOOOOOOOOOOOOOOOOOOOOOOOOOOOOXOOOO+o+OO OOOOOOXOOO",
"OOXOOOOOOOOOOOOOOOOOOOOOOOOOOOOOOOOOOOO+OOOOOOOOOOOOOO",
"OOOOOOOOOOOOOOOOOOOOOOOOOOOO OOOOOOOOOOOOOOOOOOOOOOOOO",
"OOOOOOO+OOOOOOOOOOOOOOOO OO OOOOOOOOOOOOOOOOOOOOOOOOOO",
"OOOOOO+o+OOOOOOXOOOOOOOOO O OOOOOOOO OOOOOOOOOOOOOOOOO",
"OOOOOOO+OOOOOOOOOOOOOOOOO OOOOOOOOOOOOOOOOOXOOOOOOOOOO",
"OOOOOOOOOOOOOOOOOOOOOOOOOOOOOOOOOOOOOOOOOOOOOOOOO OOOO",
"OOOOOOOOOOOOOOOOOOO.OOOOOOOOOOOOOOOOOOOOOOOOOOOOOOOOOO",
"OOOOOOOOOOO.OOOOOOOOOOOOOOOOOOOOOOOOOOOOOOOOOOOOOOOOOO",
"OO+OOOOOOOOOOOOOOOOOOOOOOOOOOOOOOOOOOOOOOOO OOOOOOOOOO",
"O+o+OOOOOOOOOOOOOOOOOOOOOOOOOOOOOOXOOOO.OOOOOOOOOOOOOO",
"OO+OOOOOOOOOOOOOOOOOOOOOOO+OOOOOOOOOOOOOOOOOOOOO.OOO O",
"OOOOOOOOOOOO OOOOOOO OOOO+o+OOOOOOOOOOOOOOOOO OOOOOOOO",
"OO OOOOO OO OOOOOOOOOOOOOO+OOOOOOOOOOOOOO OO OOOOOOOOO",
"OOOOOOOOO O OOOOOOOOOOOOOOOOOOOOOOOOOOOOOOOOOOOOOOOOOO",
"OOOOOOOOO OOOOOOOOOOOO OOOOOOOO+OOOOOOOOOO OOOOOOOOOOO",
"OOOOOOOOOOOOOOOOOO OO OOOOOOOO+o+OOO OOOOOOOOOOOOOO+OO",
"OOOOOOOOOOOOOOOOOOO O OOOOOOOOO+OOOOOOOOOOOOOOXOOO+o+O",
"OOO.OOOOOOOOO OOOOO OOOOOOOOOOOOOOOOOOOOOOOOOOOOOOO+OO",
"OOOOOOOO.OOOOOOOOOOOOOOOOOO.OOOOOOOOOOOOOOOOOOOOOOOOOO",
"OOOOOOOOOOOOOOOOOOOOOOOOOOOOOOOOOOOOOOOOOOOOOOOOOOOOOO"
};
