/* XPM */
static char *_e422f950acd478ecf29957923518442DDIELOiuWuWPzqQM[] = {
/* columns rows colors chars-per-pixel */
"54 63 202 2 ",
"   c #7D0F2F",
".  c #7A152C",
"X  c #7B1531",
"o  c #0F5F30",
"O  c #205D33",
"+  c #086235",
"@  c #1C6233",
"#  c #1E7234",
"$  c #256433",
"%  c #2A6C36",
"&  c #3F4955",
"*  c #444652",
"=  c #484651",
"-  c #454954",
";  c #4A4A55",
":  c #4A4D59",
">  c #4F4F5B",
",  c #505562",
"<  c #831732",
"1  c #8C4B2D",
"2  c #924D2D",
"3  c #8E502F",
"4  c #92512E",
"5  c #99502D",
"6  c #8C4D33",
"7  c #8D4D3A",
"8  c #934D33",
"9  c #914D39",
"0  c #8E5134",
"q  c #935335",
"w  c #93533A",
"e  c #99553B",
"r  c #B61F42",
"t  c #BA1E44",
"y  c #B62244",
"u  c #BC2345",
"i  c #B92548",
"p  c #049148",
"a  c #1A9B4A",
"s  c #289648",
"d  c #369548",
"f  c #0FA44F",
"g  c #2EA34B",
"h  c #439A4A",
"j  c #7B9955",
"k  c #8C831B",
"l  c #FFEA00",
"z  c #AA8C73",
"x  c #B48F78",
"c  c #BE8E7C",
"v  c #B4907F",
"b  c #BE927C",
"n  c #C38E78",
"m  c #C3927C",
"M  c #C8967F",
"N  c #6B2D8B",
"B  c #732D8C",
"V  c #6C338C",
"C  c #74328D",
"Z  c #7D3D8B",
"A  c #79388C",
"S  c #6E3591",
"D  c #6D3A94",
"F  c #743491",
"G  c #7A3592",
"H  c #743B94",
"J  c #7A3B94",
"K  c #743E98",
"L  c #7C438C",
"P  c #76498D",
"I  c #7D4391",
"U  c #784696",
"Y  c #7C4299",
"T  c #823D86",
"R  c #813D8C",
"E  c #823C92",
"W  c #81428C",
"Q  c #824492",
"!  c #854697",
"~  c #824B98",
"^  c #8D579D",
"/  c #85599E",
"(  c #8D5B9D",
")  c #935C9E",
"_  c #985B9F",
"`  c #8959A3",
"'  c #8D5CA3",
"]  c #935DA3",
"[  c #9A5EA3",
"{  c #8C61A4",
"}  c #8D62A9",
"|  c #9361A5",
" . c #9363A8",
".. c #9967A9",
"X. c #9E70AA",
"o. c #A675B3",
"O. c #AA7DB5",
"+. c #B47EB3",
"@. c #6B9C98",
"#. c #759293",
"$. c #749D95",
"%. c #799C96",
"&. c #769E9A",
"*. c #6EA294",
"=. c #75A196",
"-. c #76A09A",
";. c #7BA299",
":. c #7E8EA5",
">. c #77A3A0",
",. c #819496",
"<. c #829D98",
"1. c #B38F81",
"2. c #BB9483",
"3. c #81A197",
"4. c #BEA28C",
"5. c #BDA799",
"6. c #848EA4",
"7. c #8A8DA2",
"8. c #858EA9",
"9. c #8491A6",
"0. c #8A91A6",
"q. c #8592AA",
"w. c #8A93AA",
"e. c #9192A6",
"r. c #8896B1",
"t. c #BB85AF",
"y. c #AF81B6",
"u. c #B584B5",
"i. c #BB85B5",
"p. c #BD8AB5",
"a. c #B584BA",
"s. c #BB86B9",
"d. c #B589BB",
"f. c #BC8ABC",
"g. c #98BAB6",
"h. c #9CBEBC",
"j. c #A2BEAF",
"k. c #A1BEBA",
"l. c #C39383",
"z. c #C69788",
"x. c #C7A794",
"c. c #CFAC93",
"v. c #CAAA96",
"b. c #C5A69A",
"n. c #C6AA9B",
"m. c #CBAB9C",
"M. c #D2A995",
"N. c #D2AD9C",
"B. c #CCB19B",
"V. c #C087B5",
"C. c #C28AB7",
"Z. c #C68AB8",
"A. c #C28CBC",
"S. c #C691BC",
"D. c #C6ABA3",
"F. c #CCACA3",
"G. c #D2ACA3",
"H. c #CBB2A8",
"J. c #D3B1A1",
"K. c #99C1B9",
"L. c #9DC1BB",
"P. c #A3C4BD",
"I. c #A8C4BD",
"U. c #C3DFA1",
"Y. c #C4E0A3",
"T. c #B98DC0",
"R. c #BF91C0",
"E. c #9EBFC0",
"W. c #C08FC1",
"Q. c #C492C1",
"!. c #A3C4C1",
"~. c #A7C8C2",
"^. c #BACEC9",
"/. c #BCD2CE",
"(. c #B9CED1",
"). c #BDD5D4",
"_. c #BCD7D8",
"`. c #C6D3C7",
"'. c #C2D4CD",
"]. c #D0D5CD",
"[. c #C2D5D3",
"{. c #C1D9D5",
"}. c #C3D9D9",
"|. c #C6D9D8",
" X c #EACFDA",
".X c #EBD2D5",
"XX c #EED5DD",
"oX c #F2D4DC",
"OX c #F5DADF",
"+X c #F8D9D8",
"@X c #D1E2DD",
"#X c #ECD3E2",
"$X c #EBD9E9",
"%X c #F4DBE3",
"&X c #FADEE5",
"*X c #F7DCE9",
"=X c #FAE3E8",
"-X c #EDF2EC",
";X c #EEF3F3",
":X c #FBF5F4",
">X c #F5F8F7",
",X c #FEFEFE",
/* pixels */
"U.U.U.U.U.U.U.U.U.U.U.U.U.U.U.U.U.U.U.U.` ` ( ( ' ' ' ` ' } ' ` } { { Y.U.# U.U.# U.U.U.U.U.U.U.U.U.U.U.U.U.",
"U.U.j U.U.U.U.U.U.U.U.U.U.U.U.U.U.U.V ^ i.i.f.A.A.W.A.A.f.f.T.T.f.f.p...} / # U.# U.U.U.U.U.# U.U.U.U.U.U.U.",
"U.U.U.U.U.U.U.U.U.# U.U.U.U.U.U.j V N ] u.p.f.f.A.A.f.f.f.s.A.R.f.d.t.....{ / U.U.U.U.U.U.U.U.U.U.U.U.U.U.U.",
"U.U.U.U.U.U.U.U.U.U.U.U.U.U.U.U.U.V N ] i.t.p.V.A.A.V.V.V.Z.A.A.Q.f.f. .} / ( U.U.U.U.U.U.U.U.U.U.U.U.U.U.U.",
"U.U.U.U.U.# U.U.U.U.U.U.U.U.U.I.D { | OX.XoXf.f.V.W.i.W.A.f.u.+.f.f.f.d.T.$X$X' U.U.U.U.U.U.U.U.U.U.U.# U.U.",
"U.# U.U.# U.U.U.U.U.U.U.U.U.P K { XXoX X#X.X=X%X*X&X&X&X*X%X#XXXXX&X$X$X$X$X$Xs.) # U.U.U.U.U.# U.U.# U.U.U.",
"U.U.# U.# U.U.U.U.,XU.U.U.P F K | XX%X=X.X=XoXoX%XoXoX&X&X%X%XOX=XOX*X$X#X X#XT.( ] U.U.U.U.U.U.# U.# U.U.U.",
"U.U.# U.U.U.U.U.,Xl ,XU.U.F K K a.p.a.f.=X=XOX#X#XXXX.+XoX&XoX=X] *X%X&X=X*X&X%X=XoXU.U.U.U.U.U.# U.U.U.U.U.",
"U.U.U.U.U.U.U.U.U.,XU.U.U.H J H i.V.p.p.a.u.y.y.O.O.] u.a.a.T.T.' ] o.i.f.i.a.V.! ! U U.U.U.U.U.U.U.U.U.U.U.",
"U.U.U.U.U.U.U.U.U.U.U.U.U.J J H f.i.V.S.a.a.d.y.O.O.] u.u.a.T.a.| ` ) s.u.u.+.f.R I D U.U.U.U.U.U.U.U.U.U.U.",
"U.U.U.U.U.U.U.U.U.U.U.U.U ] ' ] a.C.C.u.[ [ O.S.) ' A ] R.]  . .[ | ( [ ..+.+.a.R Q H U.U.U.j U.U.U.U.U.U.U.",
"U.U.U.U.U.U.U.U.U.U.U.Y.J ' ] ] W.T G i.] ` ) ) ] ] A ( ] ( [ [ L [ [ ( ^ a.T.s.Q ~ J U.U.U.U.U.U.U.U.U.U.U.",
"U.U.U.U.U.U.U.U.U.U.U.U.J  .[ ] f.G E s.[ ' { [ W W W P  .' ] ] L L { ( ' [ s.d.~ ~ Y Y.U.U.U.U.U.U.k U.U.U.",
"U.U.U.U.U.U.U.U.U.U.Y.# E  .] [ p.G E V._ [  .| Z W Q I  .] ] ( W L | ] ^ ] A.a.~ U Y U.# U.U.U.U.U.U.U.U.U.",
"U.U.U.U.U.U.U.# U.U.# Y.H f.f.S.u.E E ] _ ..5 q 4 4 2 3 q J.F.J.m.q 2 9 w ) { X.A H K # U.U.U.U.U.U.U.U.U.U.",
"U.U.k U.U.U.U.U.# U.# D u.f.f.p.! Z Z a.W L >X>X+ + O $ @ J.G.F.D.,X@ % $ L / ) H Y U.# U.U.U.U.U.U.U.U.U.U.",
"U.U.U.U.U.U.U.U.# U.D D i.f.p.p.E W R s.W R -X:X+ @ O O o D.m.x.n.,X@ % $ E ( ) G J U.U.U.U.U.U.U.U.U.U.U.U.",
"U.U.U.U.U.U.U.U.U.U.K D f.f.s.u.R ! ! s.L L -X,Xf f s d d b.m.x.n.,Xd h h Q ..' C B U.U.U.U.U.U.U.U.U.U.U.U.",
"U.U.U.U.U.U.U.U.U.U.K H f.s.p.f.Q P Q 2 Z A -X,Xs s s s a G.m.b.n.,Xg d h Q _ ( B B U.U.# U.U.U.U.U.U.U.U.U.",
"U.U.U.U.U.U.U.U.U.U.Y F a.s.V.f.Q P W 1 P L ;X,Xp a s a a G.m.b.n.,Xg d h Q ^ ( C F U.U.U.U.U.U.U.U.U.U.# U.",
"U.U.U.U.U.U.U.U.U.U.H D i.Z.A.A.~ 8 F.F.L L v.v.5.b.b.v.5.G.m b.G.m.v.n.m.R ] ' S F U.U.U.U.U.U.,XU.U.U.U.U.",
"U.U.U.U.# U.U.U.U.U.F F V.Z.A.f.~ q b.D.Q Q G.B.B.F.m.x.x.x.2.c x.D.F.2.2.J X.] D H U.U.U.U.U.,Xl ,XU.U.U.U.",
"U.U.U.U.U.U.U.U.U.U.F H s.V.V.A.Q q e z R L D.G.F.F.G.N.N.m.v.N.F.v.G.2.z.Z X.] V H U.U.U.U.U.U.,XU.U.U.U.U.",
"U.U.U.U.U.U.U.U.U.U.F H f.V.V.V.~ q e z W L G.D.D.D.b.N.N.m.m.c.b.J.H.z.z.Z ..] D F U.U.U.U.U.U.U.U.U.U.U.U.",
"U.U.U.U.U.U.U.U.U.U.F F u.u.i.i.A.i.i.q I L 4.D.D.b.M.M.v.n.B.n.M.z.m R W [ ' ..S G U.# U.U.U.U.U.U.U.U.U.U.",
"U.U.,XU.U.U.U.U.U.U.J H d.Q W R p.A.i.u.Z T e q 2 8 4 8 6 6 1 1 2 [ _ u.u.A.A.u.J F U.U.U.U.U.U.U.U.U.U.U.U.",
"U.,Xl ,XU.U.U.,XU.U.G F a.Z W R i.i.Z.i.W L 0 3 4 q q 1 1 4 1 6 5 | s.d.s.A.A.f.K J U.U.U.U.U.U.U.U.U.U.U.U.",
"U.U.,XU.U.U.,Xl ,XU.J Y d.I Q W f.C.S.Z.f.L L e e w J.v.v.x.x.x.F | i.d.s.s.A.f.F G U.U.U.U.U.U.U.U.U.U.U.U.",
"U.U.U.U.U.U.U.,XU.U.B F W ~ I Q u.S.f.f.W.L R 1 1 1 m.v.B.x.F.D.C ) V.f.f.f.f.f.B B U.U.U.k U.U.U.U.U.U.# U.",
"U.U.U.U.U.U.U.U.U.U.F F L I I U d.u.u.f.f.W Q 1 1 2 G.D.H.x.n.D.C _ f.s.f.i.u.f.F B U.U.U.U.U.U.# U.U.# U.U.",
"U.U.U.U.U.U.U.U.U.U.J J C F U S i.L U F S.Z <.$.&.%.=.<.<.;.=.&.>.| { A.s.Q.f.f.J F U.U.U.U.U.U.U.# U.# U.U.",
"U.U.U.U.U.U.U.U.U.U.U.U.U.J D F U #.*.| ! Q #.&.%.%.;.%.-.-.=.$.-.>.3.| _ f.C Y U.U.U.U.U.U.U.U.U.# U.U.U.U.",
"U.U.j U.U.U.U.U.U.U.U.U.U.J H H J *.j.*.! Y 3.3.3.;.%.=.%.-.$.$.$.%.&.] ` G J U U.U.U.U.U.U.U.U.U.U.U.U.U.U.",
"U.U.U.U.U.U.U.U.U.U.# U.U.J H F F *.P.@.! Y $.3.%.=.=.=.&.$.&.%.@.;.@.( ) G F K U.U.U.U.U.U.U.U.U.U.U.U.U.U.",
"U.U.U.U.U.U.# U.U.# U.U.U.#.;.;.[ ~.I.K.L.} P.g.=.=.%.=.$.@.&.L.k.P.h.g.k.G N P.U.U.U.U.U.U.U.U.U.U.U.U.U.U.",
"U.U.U.U.U.U.U.# U.# U.U.U.).).^.|.h.P.P.h.I.K.h.P.P.I.I.~.L.!.L.I.I.P.E.!.g.h.U.U.U.U.U.U.# U.U.U.U.U.U.U.U.",
"U.U.U.U.U.U.U.# U.U.U.U.U._.].`._.^.'.).!.I.P.P.P.P.P.~.L.L.P.P.h.!.j.m b 1.U.U.U.U.U.U.U.U.U.U.U.U.U.U.U.U.",
"U.U.U.U.U.U.U.U.U.U.U.U.U.U.0 3 m.m.5./.^.}.[./.I.I.!.P.L.~.L.L.h.'.`.c b c U.U.U.U.U.U.U.U.U.U.U.U.U.U.U.U.",
"U.U.U.U.U.U.U.U.U.U.U.U.U.U.8 q m.m.n.'./.}.{././.(.~.!.~.I.P.L.I.'.'.m n n U.U.U.U.U.U.U.U.U.U.U.U.U.U.j U.",
"U.U.U.U.U.U.U.U.U.U.U.U.U.U.e e m.m.F.{._._._.)._._._.).{._._.[._.).^.m m l.U.U.U.U.,XU.U.U.U.U.U.U.U.U.U.U.",
"U.U.U.U.U.U.U.U.U.U.U.U.U.U.9 9 v m.N.{.'._._._.[.[.).[.}.}.}.[./.[.{.2.l.M U.U.U.,Xl ,XU.U.U.U.U.U.U.U.U.U.",
"U.U.U.U.U.U.U.U.U.U.# U.U.U.9 w x m.B.{./.{.}.{.[.'.'.{.).}.).}.[.|./.2.l.l.U.,XU.U.,XU.U.U.U.U.U.U.U.U.U.U.",
"U.U.U.U.U.U.U.U.U.U.U.U.U.U.w w n v.x._.).[.).).'.'.].[.[.[.(.[.@X|.}.z.l.M ,Xl ,XU.U.# U.U.U.U.U.U.k U.U.U.",
"U.U.k U.U.U.U.U.U.U.U.U.U.U.U.U.9 c.m._.{.}.|.{././.[.[.|.(.: - * - & b b U.U.,XU.U.U.U.U.U.U.U.U.U.U.U.U.U.",
"U.U.U.U.U.U.U.U.U.U.U.U.U.U.U.U.7 N.v.(.[.[.[.|././././.[.[.; ; - - - c b U.U.U.U.U.U.U.U.U.U.U.U.U.U.U.U.U.",
"U.U.U.U.U.U.U.,XU.U.U.U.U.U.U.U.7 n c ; : = ; : = = ; = ; - - = : * - m b U.U.U.U.U.U.U.U.U.U.U.U.U.U.U.U.U.",
"U.U.U.U.U.U.,Xl ,XU.U.U.U.U.w q m 1.m z.> 8.7.7.: ; - - : : : - #.6.- U.# U.U.U.U.U.U.U.U.U.U.U.U.U.U.U.U.U.",
"U.U.U.U.U.U.U.,XU.U.U.U.U.U.6 6 m m z.n 7.e.8.8.q.q.9.w.8.w.8.w.w.w.> U.U.U.U.U.U.U.U.k U.U.U.U.U.U.U.U.U.U.",
"U.U.U.U.U.U.U.U.U.U.U.U.U.U.8 8 z.n b l.0.:.6.r.w.w.> : , w.w.w.8.7.* U.U.U.U.U.U.U.U.U.U.U.U.U.U.# U.U.U.U.",
"U.U.U.U.U.U.U.U.U.U.U.U.U.U.U.U.m m b : 9.,.q.6.,.e.; , : 0.9.9.6.w.; U.U.U.U.U.U.U.U.U.U.U.U.U.U.U.U.U.U.U.",
"U.U.U.U.U.U.U.U.U.U.U.j U.U.U.U.U.U.U.: w.w.q.q.w.e.: - - :.9.9.8.w.; U.U.U.U.U.U.U.U.U.U.U.U.U.U.U.U.U.U.U.",
"U.U.,XU.U.U.U.U.U.U.U.U.U.U.U.U.U.U.U.= 0.r.:.q.0.w.> 0.9.w.w.q.8.8.; U.U.U.U.U.U.U.U.# U.U.U.U.U.U.U.U.U.U.",
"U.,Xl ,XU.U.U.U.U.U.U.U.U.U.U.U.U.U.U.; 0.r.q.w.9.0.; ; 0.9.9.6.8.7.* U.U.U.U.j U.U.U.U.U.U.U.U.U.U.U.U.U.U.",
"U.U.,XU.U.U.U.U.U.U.U.U.U.U.U.U.U.U.U.= 9.q.9.9.: - ,XU.= 7.6.6.8.8.- U.U.U.U.U.U.U.U.U.U.U.U.U.j U.U.U.# U.",
"U.U.U.U.U.U.U.U.U.U.U.U.# U.U.U.U.U.U.; :.6.q.w.- - l ,X; 0.7.7.8.6.* U.U.U.U.U.U.U.U.U.U.# U.U.U.U.U.U.U.U.",
"U.U.# U.U.U.U.U.# U.U.# U.U.U.U.U.U.U.: 9.q.w.w.- - ,XU.- 6.6.6.8.* U.U.U.U.U.U.U.# U.U.# U.U.U.U.U.U.U.U.U.",
"U.U.U.U.U.U.U.U.U.# U.# U.U.U.U.U.U.U.U.e.r.6.: U.U.U.U.U.= 7.q.q.U.U.U.U.U.U.U.U.U.U.U.U.U.U.U.U.U.U.U.U.U.",
"U.U.U.U.U.U.U.U.U.# U.U.U.U.U.U.U.U.U.U.    < < U.U.U.U.U.. . . X U.U.U.U.U.U.U.U.U.# U.U.U.U.U.U.U.U.U.U.U.",
"U.U.U.U.U.U.U.U.U.U.U.U.U.U.U.U.U.U.# U.r < X . u y U.U.U.u . X < i u U.% U.U.U.U.U.U.U.U.U.U.U.U.U.U.,XU.U.",
"U.U.U.U.U.U.U.U.U.U.U.U.U.U.U.U.U.U.U.# u y y r u t r U.U.u t y r y i u U.U.U.U.U.U.U.U.U.U.k U.U.U.,Xl ,XU.",
"U.U.U.j U.U.U.U.U.U.U.U.U.# U.U.U.U.U.# u t r y r r y U.U.r i i r y t t U.U.U.U.U.U.U.U.U.U.U.U.U.U.U.,XU.U.",
"U.U.U.U.U.U.U.U.j U.U.U.U.U.U.U.U.U.U.U.:X,X:X:X:X,X,Xj U.,X>X,X>X;X;X,XU.U.U.U.U.U.U.U.U.U.U.U.U.U.U.U.U.U.",
"U.U.U.U.U.U.U.U.U.U.U.U.U.U.U.U.U.U.U.U.:X:X:X,X,X,X,XU.U.,X>X,X>X>X;X,XU.U.U.U.U.U.U.U.U.U.U.U.U.U.U.U.U.U."
};
