/* XPM */
static char *a9830e713c00411599df6b1caf100a104cGyRoaTHlDncdCb[] = {
/* columns rows colors chars-per-pixel */
"54 63 229 2 ",
"   c #063718",
".  c #123D1B",
"X  c #283C27",
"o  c #0E411E",
"O  c #14411E",
"+  c #084723",
"@  c #154420",
"#  c #164824",
"$  c #1B4B25",
"%  c #09592C",
"&  c #17552A",
"*  c #1C5429",
"=  c #1C5A2D",
"-  c #244C28",
";  c #25552C",
":  c #225A2D",
">  c #285A30",
",  c #355A33",
"<  c #036934",
"1  c #1D6432",
"2  c #03763A",
"3  c #1E7234",
"4  c #1A7C3D",
"5  c #21602F",
"6  c #246432",
"7  c #246A34",
"8  c #2B6936",
"9  c #2A6A36",
"0  c #2B6E38",
"q  c #37663B",
"w  c #257439",
"e  c #2C733A",
"r  c #2B7B3D",
"t  c #317C3E",
"y  c #4A4C35",
"u  c #6E493F",
"i  c #456A3D",
"p  c #3E6C41",
"a  c #456B42",
"s  c #487649",
"d  c #537D4F",
"f  c #757D54",
"g  c #9C3E53",
"h  c #AE2F58",
"j  c #BC3A61",
"k  c #C71F61",
"l  c #CC1D64",
"z  c #D21A66",
"x  c #D6176A",
"c  c #DB156B",
"v  c #D51969",
"b  c #E60D6F",
"n  c #E1116E",
"m  c #CB2A66",
"M  c #D5246B",
"N  c #C93968",
"B  c #D1376D",
"V  c #E13377",
"C  c #9F5F5D",
"Z  c #AF445E",
"A  c #946F5D",
"S  c #89785C",
"D  c #BB4764",
"F  c #AC5B63",
"G  c #B45666",
"H  c #927563",
"J  c #957562",
"K  c #A76764",
"L  c #B67473",
"P  c #C54469",
"I  c #D44A77",
"U  c #CA5072",
"Y  c #D6557D",
"T  c #C1717A",
"R  c #0F813F",
"E  c #29833F",
"W  c #028C46",
"Q  c #009349",
"!  c #099748",
"~  c #009D4A",
"^  c #159447",
"/  c #1D9647",
"(  c #1A9748",
")  c #139B49",
"_  c #1B9B49",
"`  c #2C8541",
"'  c #228D44",
"]  c #2C8C43",
"[  c #388A44",
"{  c #239647",
"}  c #2B9546",
"|  c #269947",
" . c #2B9947",
".. c #229748",
"X. c #249B49",
"o. c #2B9C49",
"O. c #319947",
"+. c #389748",
"@. c #329B49",
"#. c #3B9D4C",
"$. c #359D58",
"%. c #07A44B",
"&. c #00A24C",
"*. c #16A64B",
"=. c #00AA50",
"-. c #25A24A",
";. c #2AA14A",
":. c #39A44A",
">. c #32A952",
",. c #588A4C",
"<. c #48964B",
"1. c #578756",
"2. c #508B50",
"3. c #4A9A52",
"4. c #559958",
"5. c #608D4F",
"6. c #688756",
"7. c #778559",
"8. c #6C9559",
"9. c #7B9954",
"0. c #47AB49",
"q. c #58B947",
"w. c #57B84A",
"e. c #49A355",
"r. c #48A656",
"t. c #57A55C",
"y. c #54AB5D",
"u. c #4FB750",
"i. c #67AE53",
"p. c #65B755",
"a. c #57976A",
"s. c #76896D",
"d. c #6B9865",
"f. c #729765",
"g. c #5BA966",
"h. c #5DB768",
"j. c #65A968",
"k. c #74A860",
"l. c #66B768",
"z. c #70BE69",
"x. c #6BAA74",
"c. c #75AB75",
"v. c #69B873",
"b. c #74B67B",
"n. c #75C15A",
"m. c #77C269",
"M. c #6EC172",
"N. c #77C47A",
"B. c #8C831B",
"V. c #FFEA00",
"C. c #F1EA31",
"Z. c #9B826C",
"A. c #8D926B",
"S. c #8BB37A",
"D. c #86C678",
"F. c #96CC7A",
"G. c #776599",
"H. c #4E56A5",
"J. c #4F59A5",
"K. c #5753A3",
"L. c #7153A2",
"P. c #AF3D96",
"I. c #BE3393",
"U. c #C7208F",
"Y. c #B94499",
"T. c #D85B81",
"R. c #C24897",
"E. c #E74D85",
"W. c #DA6488",
"Q. c #DD7793",
"!. c #79BF81",
"~. c #75C384",
"^. c #7CC485",
"/. c #7EC789",
"(. c #7FC88D",
"). c #8F9487",
"_. c #AD9288",
"`. c #90B787",
"'. c #ADB298",
"]. c #93A7A7",
"[. c #ADBCA7",
"{. c #EC90B0",
"}. c #EA9AB4",
"|. c #D6BCBE",
" X c #E9A6BC",
".X c #F3A4BE",
"XX c #82C78A",
"oX c #83C88C",
"OX c #88C88A",
"+X c #94CA8D",
"@X c #86CA91",
"#X c #8ACB93",
"$X c #97CC94",
"%X c #9CD093",
"&X c #AACA8E",
"*X c #B2CE93",
"=X c #A1D294",
"-X c #ACD091",
";X c #A8D498",
":X c #B6D697",
">X c #BCDB9D",
",X c #ACC5A4",
"<X c #B7D3AC",
"1X c #ADCAB6",
"2X c #BACDB9",
"3X c #C7DC8F",
"4X c #C1DD9F",
"5X c #CAE08C",
"6X c #FBF08C",
"7X c #FFF594",
"8X c #C3DFA1",
"9X c #CFDAAC",
"0X c #CCD5B0",
"qX c #CDE4AE",
"wX c #F6F2B4",
"eX c #F4A7C3",
"rX c #F0B3C9",
"tX c #F2B6CC",
"yX c #BEDFC2",
"uX c #C0D9D2",
"iX c #F6C6DA",
"pX c #D3E9D4",
"aX c #ECEFCD",
"sX c #F9CDE1",
"dX c #FBD8E7",
"fX c #EDECEB",
"gX c #FAF8E9",
"hX c #F9FAF5",
"jX c #FFFEFE",
/* pixels */
"8X8X8X8X8X8X8X8X8X8X8X8X8X8X8X8X8X8X8X8X8X8X8X8X8X3 8X8X8XY.Y.Y.8X8X8X8X8X3 8X8X3 8X8X8X8X8X8X8X8X8X8X8X8X8X",
"8X8X9.8X8X8X8X8X8X8X8X8X8X8X8X8X8X8X8X8X8X3 8X8X3 8X8X4Xi.Y.Y.R.>XqX8X8X8X8X3 8X3 8X8X8X8X8X3 8X8X8X8X8X8X8X",
"8X8X8X8X8X8X8X8X8X8X8X8X8X8X8X8X9.8X8X8X8X8X1 8X3 8X8Xw.i.I.I.R.G.J.,X8X8X8X3 8X8X8X8X8X8X8X8X8X8X8X8X8X8X8X",
"8X8X8X8X8X8X8X8X8XP.P.P.0X>X8X8X8X8X8X8X8X8X3 8X8X8X>X>X>Xk.k.R.L.J.,X8X8X8X8X8X8X8X8X8X8X8X8X8X8X8X8X8X8X8X",
"8X8X8X8X8X3 8X8X>XP.P.P.[.>X8X8X8X8X8XB.8X8X8X8X8X8X8X8X8X>Xq.G.K.J.0X>X8X8X8X8X8X8X8X8X8X8X8X8X8X8X8X3 8X8X",
"8X3 8X8X3 8X8X].].Y.P.P.q.:X8X8X8X8X8X8X8X8X8X8X8X8X8X8X8X8X:Xa.[.2X3XjX8X8X8X8X8X3 8X8X8X8X8X3 8X8X3 8X8X8X",
"8X8X3 8Xw 8X8XJ.J.L.I.U.q.q.:X8X8X8X8X8X8X8X8X8X8X8X8X8X8X8X>X-X4X8X8X8X8X8X8X8X8X8X8X8X8X8X8X8X3 8X3 8X8X8X",
"8X8X3 8X4X8X8XJ.J.J.G.Z.q.q.w.8X8X8X8X8X8X8X8X8X8X8X8X8X8X8X8X8X8X8X8X8X8XjX8X8X8X8X8X8X8X8X8X8X3 8X8X8X8X8X",
"8X8X8X8X8X8X8XH.H.H.x.q.:X8X8X8X8X8X8X8X>X>X8X8X8X3 8X8X>X>X8X8X8X8X8X8X8XV.jX8X8X8X8X8X8X8X8X8X8X8X8X8X8X8X",
"8X8X8X8X8X8X8X8X8X+Xq.q.8X:X*X*X8X8X8X4XOX`.8X8X8X8X8X>X/./.>X8X8X8X8X8X4X4X8X8X8X8X8X8X8X8X8X8X8X8X8X8X8X8X",
"8X8X8X8X8X8X8X8X8Xq.4X8X%X1.  ,.8X8X8X#XN./.D.8X8X8X>X/.(.N.(.>X4X8X4X<X#X=X4X8X8X8X8X8X8X8X9.8X8X8X8X8X8X8X",
"8X8X8X8X8X8X8X8X8X8X4X%X@X6., =X8X8XOXoXw.M.oX&X8X-X#X/.N.q./.@X>X4X+XpXpX/.%X8X8X8X8X8X8X8X8X8X8X8X8X8X8X8X",
"8X8X8X8X8X8X8X8X8X%XoX~.2X{.l P /././.(.w.q.:.} ..r.@XN.q.q.(.@Xe.W 1X7X7XpX~.+X8X8X8X8X8X8X8X8X8X8XB.8X8X8X",
"8X8X8X8X8X8X8X8X8X=X~.J W.sX{.m P /.oXq.q.q.q.0.{ / e.@XN.q././.@X,   ).qXu.oXXX+X8X8X8X3 8X8X8X8X8X8X8X8X8X",
"8X8X8X8X8X8X8X8X=X/.~.Q.x P B l P /./.oXw.u.N.e.e./.!.oXoX/./.@X>.% < 0.w.p.@XoXoX+X8X8X8X8X8X8X8X8X8X8X8X8X",
"8X8XB.8X8X8X8X;X/.XX~.Z.x z z z N /.#Xr.l.N.XX!.!.oX@X!.:.0.OX=.[.G h D Z.~.~.w.:.#X#X:X8X8X8X8X8X8X8X8X8X8X",
"8X8X8X8X8X8X;Xy.~.@X~.`.L x v P `./.e.W uX%X/.oXXXoXb.:...| r.C  X.X{.Y k Z.M.u.h.e.^.%X%X8X8X8X8X8X8X8X8X8X",
"8X8X8X8X8X4Xy.= x.#X@XoX`.L N `.^.oX( 1X6XaX#XM.oXOXb.Q  .;.W j .XdXdX{.x L u.n.^.Q oX#Xs :X8X8X8X8X8X8X8X8X",
"8X8X8X8X8X8X&X`.s 9 q 2.g.b._.~.oXg.{ -XwXqXn.l.#X~.e.| } 7 ) N T.Q.Q.I n T q.w.oXg.s q d >X8X8X8X8X8X8X8X8X",
"8X8X8X8X8X8X>XqX*Xs.X < ~ -.v.oXy.) ;.2 s.4.*.z./.r.! o.E   1 S N l k z D A.oXm.oXoX. f.8X8X8X8X8X8X8X8X3 8X",
"8X8X8X8X8X8X>X>X8XpXs.p o._ $.h.^ w 2   + W ~ y.3.4 o.( { q . Q S N n P 6.=.v.b.oXj.> ;X>X8X8X8XjX8X8X8X8X8X",
"8X8X8X8X3 8X%X^.OXl.M.y._ ' ` ! } + y y 6.7.<.&.1 $ >.y.y.OXO ] &.J P 6.&.} ! O.l.^ *.b./.>X>XqX5X8X8X8X8X8X",
"8X8X8X8X8X8XqX-XXX$.~ X.} 0 > 0.:.5.tXE.v n A ;.3 & <.x.x.j.$ } O.~ ~ ~ O. .|  .t._ #.^.oX/./.oX<X8X8X8X8X8X",
"8X8X8X8X8X4X>X4Xl...o.-.1 , #Xv.i.c  XsXY m n H Q > . . . O 0 } o. . . . .} o.c.gX3./.~././././.:X8X8X8X8X8X",
"8X8X8X8X8X8X8X8X8.-.-.E e : . . - m l  XsXY v S &.] p w w e 0 { o. . . . .Q c.gXC.hXq./ b.oX/./.(./.=X8X8X8X",
"8X8X8X8X8X8X: o x.y...o.` 9 0 0 9 <.m m m x S ~ | } o.] 9 0 }  . . .o.o. . .^ j.jXw.@. ./ v.@X/.oX(.XX$X8X8X",
"8XaX8X8XqX:X+ g.#Xr.! | o.` 8 e O.{ <.N n S ) X.^ Q o. .} }  . .;.= O w ;. .| :.p.o. . .X.:.#.#.:.:.#.l.8X8X",
"8X8X8X/.^.|.h P 3.h.oXt.(  .E e o.} _ ,.5.@...Q `.1XQ }  .o. . .~ ~ + < %. . . .o. .o._ & E ;.o.w 8.>X8X8X8X",
"8X8XqXXXU tX}.M D 8.r.#.| o. ...Q o.o.) ~ | Q `.wX6X<X>. . .} ~ [.L g h A.&.O.O. . . .v.- 6 } ;.7 f.8X8X3 8X",
"8X8X^.XXXXdXdXB c 7.~ X.o.@.Q $.1XQ ..{  . .! g.0XwXD.o. . ...A  X.XI z N f ~ o.;.;.^ oX; : e o.w 7.8X8X8X8X",
"8X8XXXXXXXQ.Q.B n 7.=.r p &.4.0X7X,X0.0.O.o. .Q v.OX~ } | o.^ m  XdX XI x F &.} = 9 h.#X- = E r d S.8X3 8X8X",
"8X8XXXXXXXz l v K i 4 @ & %.g.qX7XqXi.w.O. .o.w <.0.^ o.O.w ! N Y {.{.Y x K &.] * . s 2.; w ;.w A.8X8X8X8X8X",
"8X8X;.;.oXC v F >.%   - s X.Q $.pX%.0.-.;.E -.& i N.*.{ ' . / A m l k x N S ~ o. .$ O o w ;.] a &X8X8X8X8X8X",
"8X8X8X;.;.&.F X.&.&   ,.z.X.:.r.E w E -.;.;.-.1 p OXp.r.r.o  .&.J m x N 7.&. .o.} E e r  .;.8 S.8X8X8X8X8X8X",
"8X8X8X8Xo.;.o.{ o.&   8 w.p.z.1.  # } ' E E ;.3 q b.x.c.d.$ }  .&.A m 7.&.O. . . .o.t } o. .o.-X8X8X8X8X8X8X",
"8X8X8X8X$ , . ] ;.6 $   a oX4.  * ;.X.# o E -.E =   o . O t  . .O.~ ~ !  . . . . . .o.} ] | X.-X8X8X8X8X8X8X",
"8X8X8X8X8X8X$ ] o.;.` : . O O $ r o.+.:.- e #.@.` 0 e e e  . . .} } | @.@.}  . . . .| # . 4 v.@X/.;X8X8X8X8X",
"8X8X8X8X8X8X$ ] o. .o.t 9 e 9 e ..O.m rXU m v S &.] 8 w o. . . . . .Q 1X1XQ  .o. .o._ @ R l.oX/.XX/.%X8X8X8X",
"8X8X8X4X,XOXb.;.Q { o.o.r e { { <.N l eXtXY l z H ~ } }  . . . .o.Q 1X7X7XyX>.X.| ~ |.j j M 7.&.j.@XXX=X9.8X",
"8X8X,X,X,X^.XXl.pXg.W o.o.} | _ <.c l tXsXiXT.n K &. .o. . . .;.* E :.0XqXw.4 & 3.D tXrXB l m 7.~ h.#XoX=X8X",
"4X,X,X,XoXoXoXfX6XaXoXX. .o. . .O.7.z I Y W.M K <.*.;.-. . . .o.E = 2 y.D.N.4.+ 3.x iXdX XI M S ~ o.g.@XXX=X",
"8X,X;.;./.oXt.b.wX9Xp...{  . . .| ~ 7.B l z b S %.E * 1 o. . . .;.# s N.z.4.; + 3.c W.Y iXY n J ~ Q ~ m.@XXX",
"8X8X;.;.;.r.Q W $Xp.~ }  . .;.;. . .! 7.M K A 5.&.<   2 &.o. . .;.7 q s j.,.  7 <.A m l W.V F 5.Q g.$X>.m.;X",
"8X8X;.;.;.;.;.@.X./ { } o.] 6 w o. . .&.A <.&.&.g.A.u Z.S ~ |  .o.} =   ; q @ t -.&.A m c G <.&.j.qXwX#Xu.8X",
"8X8X8X;.;.;.;.@.{  . .o.) <   < @. . . .~ ) ) ,._.eXV c B 7.O. . .;.} 6 $ @ : ]  . .~ J F <.~ Q b.wX6XyXD.8X",
"8X8X8X8X;.;.^ o. . . .~ y.d y 8.~  . . . . .~ K E.rXrXI v c +.}  .o.;.] e e ] o. . .( ~ &.(  .O.Q x.yX>.4X8X",
"8X8X8X8XQ o. . . . .{ [ '.}.b P <. . .{  . .~ S k Y rX}.l G +. .;.E E  .] E X. .| ..j. .|  . . . .;.>.h.4X8X",
"8X8X8X8Xe. . . . . .! A E.iX Xz N ^ | r. .| @.~ f v l l G ~ {  .;.=   7 -.o. . . .t.hXj.O. . .o.o.{ t.8X8X8X",
"8X8X8X8XfX/  . .| o.&.A z W. Xl D / { hXj./  . .~ 7.c G ~  . . .@.:.: 9 +.|  .X.e.hXC.gXD.-. .} O. .y.8X8X8X",
"8X8X8X8X4Xo O } o.|  .~ H c z D ~ +.hXC.gXD.X. .o.o.+.+. . .o.~ |.Y m z A &.}  .o.#.hXn.;.{ : . d.8X8X8X8X8X",
"8X8X8X8X4X4X- O @ ` ;...! S P  .X. .3.gXF.:.-.7 6 -.X.{ o. ._ Z  XtXtXW.v J ~  .o.o.n.>.;.-.5 6.8X8X4X8X8X8X",
"8X8XjX8X4X8X:X>Xi $ $ w *.<.5.~  . .^ m.0.-.7   = o.o.` * o.) N M  XdXQ.c K &.} e w ` p : $ O k.8X8X8X8X8X8X",
"8XjXV.jX8X8X8X8X>Xi . $ w *.) O.o. . .o.{ -.& q p.0.X.` O o.} 5.j  X{.x F 3.{ e e e $ * . . f.8X8X8X8X8X8X8X",
"8X8XjX8X8X8X8X8X8X-X&X6.$ : w ;.o.;.o. . .;.& d N.:.Q ' @ ;. .&.P E.P x J ~ r 9 $ ; O . f.S.*X:X9.8X8X8X3 8X",
"8X8X4X8X8X8X8X8X8X8X>X:Xq . @ 0 ] ` ` @.;.] + d XXz.v.4.O E o.) 7.N c G ,.4 9 * . . f.f.*Xw &X8X8X8X8X8X8X8X",
"8X8Xw 8X8X8X8X8X3 8X8XqX:XA.8.O : > 0 ` ] ` 1 , 1.s 1.s : ` | o.&.7.K ,.4 9 - . $ & >X8X3 8X8X8X8X8X8X8X8X8X",
"8X8X8X8X8X8X8X8X8X3 8X3 8X8X*XO . O > : 8 ` ` : + + + = t } ] ] ] W Q 4 8 * - ,.1.8X8X8X8X8X8X8X8X8X8X8X8X8X",
"8X8X8X8X8X8X8X8X8X3 8X8X8X9.9.9.9.@ O . : 8 e e e p e 7 8 > > 0 0 0 9 9 - $ 9.9.8X8X7 8X8X8X8X8X8X8X8X8X8X8X",
"8X8X8X8X8X8X8X8X8X8X9.9.9.9.9.9.9.a @ @ . : 8 8 7 8 : . . . . 6 7 8 $ . O 9.9.9.9.9.9.8X8X8X8X8X8X8X8XjX8X8X",
"8X8X8X8X8X8X8X8X9.9.9.9.9.9.9.9.9.9.i O @ O O . . O O @ @ @ @ . o o - @ 9.9.9.9.9.9.9.9.8X8XB.8X8X8XjXV.jX8X",
"8X8X8X9.8X8X8X8X8X9.9.9.9.9.9.9.9.9.9.- @ @ @ @ @ @ @ @ @ @ @ @ O O 9.9.9.9.9.9.9.9.9.9.9.8X8X8X8X8X8XjX8X8X",
"8X8X8X8X8X8X8X8X9.8X8X8X8X9.9.9.9.9.9.9.9.9.9.9.9.9.9.9.9.9.9.9.9.9.9.9.9.9.9.8X8X8X8X8X8X8X8X8X8X8X8X8X8X8X",
"8X8X8X8X8X8X8X8X8X8X8X8X8X8X8X9.9.9.9.9.9.9.9.9.9.9.9.9.9.9.9.9.9.9.9.8X8X8X8X8X8X8X8X8X8X8X8X8X8X8X8X8X8X8X"
};
