/* XPM */
static char *a5c773194902493cd5c35d39f6d793aaGVDSEfY5nbgMG99j[] = {
/* columns rows colors chars-per-pixel */
"54 63 243 2 ",
"   c #032A10",
".  c #083719",
"X  c #16381C",
"o  c #26331D",
"O  c #103F21",
"+  c #2F3F29",
"@  c #781218",
"#  c #712A2A",
"$  c #0F421E",
"%  c #0A4625",
"&  c #184724",
"*  c #075428",
"=  c #19542A",
"-  c #185035",
";  c #224928",
":  c #22582D",
">  c #344C32",
",  c #2A5B35",
"<  c #116B32",
"1  c #1E7234",
"2  c #197839",
"3  c #276734",
"4  c #2D6731",
"5  c #257739",
"6  c #5C522F",
"7  c #2C7C45",
"8  c #357A42",
"9  c #6E5240",
"0  c #765A4A",
"q  c #49724C",
"w  c #726953",
"e  c #737E69",
"r  c #8E0F16",
"t  c #B2141D",
"y  c #A92C1C",
"u  c #9E0E21",
"i  c #891B28",
"p  c #961A2A",
"a  c #A61A23",
"s  c #B51B24",
"d  c #852627",
"f  c #95252B",
"g  c #8D352C",
"h  c #8E2836",
"j  c #912635",
"k  c #962734",
"l  c #932E39",
"z  c #8E363C",
"x  c #92323B",
"c  c #A8252B",
"v  c #B72629",
"b  c #B93727",
"n  c #BB2C34",
"m  c #AC3531",
"M  c #C10E1C",
"N  c #DA0D1B",
"B  c #DB131E",
"V  c #DD0E21",
"C  c #C71A25",
"Z  c #C31C24",
"A  c #CB1C25",
"S  c #DC1524",
"D  c #D31B25",
"F  c #D41A26",
"G  c #DC1B26",
"H  c #DD1E29",
"J  c #E61623",
"K  c #E21B26",
"L  c #E21E29",
"P  c #F51627",
"I  c #C72428",
"U  c #DD232A",
"Y  c #D92628",
"T  c #C4332B",
"R  c #DD372D",
"E  c #C92B37",
"W  c #D62936",
"Q  c #C63734",
"!  c #D8353B",
"~  c #E3222A",
"^  c #E2282A",
"/  c #E5362C",
"(  c #E12933",
")  c #E23232",
"_  c #E63935",
"`  c #974530",
"'  c #B34D36",
"]  c #BC493C",
"[  c #C94735",
"{  c #DC493D",
"}  c #D9553A",
"|  c #E44536",
" . c #ED4D33",
".. c #E65938",
"X. c #E11F40",
"o. c #CD3746",
"O. c #D73647",
"+. c #D83C51",
"@. c #E63B47",
"#. c #9C4344",
"$. c #905245",
"%. c #B64745",
"&. c #B15349",
"*. c #8C6757",
"=. c #8D7159",
"-. c #B0694C",
";. c #BE6757",
":. c #BB7858",
">. c #907C6B",
",. c #AF7065",
"<. c #D54847",
"1. c #C35846",
"2. c #D7574A",
"3. c #CF4E58",
"4. c #D94555",
"5. c #E85543",
"6. c #E3545C",
"7. c #F15B50",
"8. c #D0734E",
"9. c #C76A54",
"0. c #D56554",
"q. c #E76A4A",
"w. c #E97749",
"e. c #F4714E",
"r. c #EA7752",
"t. c #E85768",
"y. c #D77964",
"u. c #D57070",
"i. c #E46769",
"p. c #E6786A",
"a. c #E86E77",
"s. c #04883A",
"d. c #1D823B",
"f. c #26843B",
"g. c #5A9233",
"h. c #119049",
"j. c #2B8B42",
"k. c #3A854A",
"l. c #289947",
"z. c #2D9947",
"x. c #2B9C49",
"c. c #319848",
"v. c #29A851",
"b. c #37A555",
"n. c #479151",
"m. c #56975A",
"M. c #66905D",
"N. c #7B9955",
"B. c #49A95A",
"V. c #52A95F",
"C. c #549168",
"Z. c #6B8664",
"A. c #748F6F",
"S. c #6C9568",
"D. c #4BAB61",
"F. c #56AD62",
"G. c #5AB267",
"H. c #65B56A",
"J. c #71A770",
"K. c #77B874",
"L. c #7EC079",
"P. c #8C831B",
"I. c #918A27",
"U. c #F7BB09",
"Y. c #FFEA00",
"T. c #949159",
"R. c #B9855E",
"E. c #9C8576",
"W. c #889474",
"Q. c #B59173",
"!. c #8FA17C",
"~. c #87B77B",
"^. c #D08452",
"/. c #ED8D54",
"(. c #E98959",
"). c #CF8B6A",
"_. c #ED916D",
"`. c #CEA772",
"'. c #F5A969",
"]. c #EEAC70",
"[. c #F7B677",
"{. c #83C37C",
"}. c #FAC37C",
"|. c #EB7C82",
" X c #7ABD8F",
".X c #79C38A",
"XX c #A59982",
"oX c #8FAF88",
"OX c #9CB695",
"+X c #B4AF86",
"@X c #A3BA9A",
"#X c #D5928A",
"$X c #ED898B",
"%X c #E8989A",
"&X c #D0B78A",
"*X c #EEAC8F",
"=X c #DA9DA8",
"-X c #F598A6",
";X c #CDABA2",
":X c #E7A5A5",
">X c #F3A4AD",
",X c #F8A1AB",
"<X c #F8AAB9",
"1X c #E8B7B5",
"2X c #F6B6B9",
"3X c #89C984",
"4X c #98CA87",
"5X c #90CC94",
"6X c #A5C88D",
"7X c #A3D18E",
"8X c #A9CE94",
"9X c #A9C29F",
"0X c #A9D294",
"qX c #B4D898",
"wX c #BCDA9D",
"eX c #ABC3A2",
"rX c #AECAA2",
"tX c #B3CCA2",
"yX c #B1CEA8",
"uX c #ACD3A1",
"iX c #ABD4AD",
"pX c #BAD4A2",
"aX c #B9D9A4",
"sX c #C7CA95",
"dX c #F2CF91",
"fX c #C8D5A2",
"gX c #C3DFA1",
"hX c #D4D2B0",
"jX c #E8CCBE",
"kX c #C6E1A8",
"lX c #CAE4B6",
"zX c #D6E4B0",
"xX c #F5BEC6",
"cX c #F6C7C9",
"vX c #EFD6C7",
"bX c #F6CAD3",
"nX c #F7D7DA",
"mX c #D6E8C6",
"MX c #C8EBD7",
"NX c #E5F2D6",
"BX c #F3DCE2",
"VX c #F5FCF8",
"CX c #FFFFFF",
/* pixels */
"gXgXgXgXgXgXgXgXgXgXgXgXgXgXgXgXgXgXgXgXgXgXgXgXgX1 gXgXgXgXgXgXgXgXgXgXgX1 gXgX1 gXgXgXgXgXgXgXgXgXgXgXgXgX",
"gXgXN.gXgXgXgXgXgXgXgXgXgXgXgXgXgXgXgXgXgX1 gXgX1 gXgXgXgXgXgXgXgXgXgXgXgXgX1 gX1 gXgXgXgXgX1 gXgXgXgXgXgXgX",
"gXgXgXgXgXgXgXgXgX1 gXgXgXgXgXgXN.gXgXgXgXgX1 gX1 gXgX1 gXgXgXgXgXgXgXgXgXgX1 gXkXgXgXgXgXgXgXgXgXgXgXgXgXgX",
"gXgXgXgXgXgXgXgXgXgXgXgXgXgXgXgXgXgXgXgXgXgX1 gXgXgXgXgXgXgXgXgXgXgXgXgXgXgXgXgXwXgXgXgXgXgXgXgXgXgXgXgXgXgX",
"gXgXgXgXgX1 gXgXgXgXgXgXgXgXgXgXgXgXgXP.gXgXgXgXgXgXgXgXgXgXgXgXgXgXCXgXgXgXgXgXgXgXgXgXgXgXgXgXgXgXgX1 gXgX",
"gX1 gXgX1 gXgXgXgXgXgXgXgXgXgXgXgXgXgXgXgXgXgXgXgXgXgXgXgXgXgXgXgXCXY.CXgXgXgXgXgX1 gXgXgXgXgX1 gXgX1 gXgXgX",
"gXgX1 gX1 gXgXgXgXCXgXgXgXgXgXgXgXgXgXgXgXgXgXgXgXgXgXgXgXgXgXgXgXgXCXgXgXgXgXgXgXgXgXgXgXgXgXgX1 gX1 gXgXgX",
"gXgX1 gXgXgXgXgXCXY.CXgXgX1 gXgXgXgXgXgXgXgXgXgXgXgXgXgXgXgXgXgXgXgXgXgXgXCXgXgXgXgXgXgXgXgXgXgX1 gXgXgXgXgX",
"gXgXgXgXgXgXgXgXgXCXgXgXgXgXgXgXgXgXgXgXgXgXgXgXwX5 qXqXgXgXgXgXgXgXgXgXCXY.CXgXgXgXgXgXgXgXgXgXgXgXgXgXgXgX",
"gXgXkXgXgXgXgXgXgXgXgXgXgXgXgXgXgXgXgXgXgX1 gXgX5 K.G.H.gX{.wXgX1 gXgXgXgXCXgXgXgXgXgXgXgXgXgXgXgXgXgXgXgXgX",
"gXgXgXgXgXgXgXgXgXgXgXgX6Xg.7XgX7XaXgXgXgXgX1 gX$ 5 b.B.G.l.0XgXgXgXgXgXgXgXgXgXgXgXgXgXgXgXN.gXgXgXgXgXgXgX",
"gXgXgXgXgXgXgXgXgXgXgXgXwXm.5 m.H.lXgXgXgXgXk.7Xm.: : 5 x.l.F.wXgXgXgXgXgXgXgXgXgXgXgXgXgXgXgXgXgXgXgXgXgXgX",
"gXgXgXgXgXgXgXgXgXgXgXgXgX~.n.5 b.3XG. XyXmXlX7XK.Z.. : c.c.s.5XzXkXkXgXgXgXgXgXgXgXgXgXgXgXgXgXgXgXP.gXgXgX",
"gXgXgXgXgXgXgXgXgXgXgX1 gXgXwXN.V.f.< 7 oXlXmXpXkXJ.. 3 z.z.h..XlXkXP.gXgXgXgXgXgXgXgXgX1 gXgXgXgXgXgXgXgXgX",
"gXgXgXgXgXgXgX1 gXgX1 gXgXgX6XgXwX& & * 3 S.iXlXzXA.= 5 x.x.s. XzXkXgXgXgXgXgXgX1 gXgX1 gXgXgXgXgXgXgXgXgXgX",
"gXgXP.gXgXgXgXgX1 gX1 gXgXgXgXOXS.q & & O * M.uX8XyXZ.= j.l.< oXNXgXgXgXgXgXgXgXgX1 gX1 gXgXgXgXgXgXgXgXgXgX",
"gXgXgXgXgXgXgXgX1 gXgXgXgXgXkXaXOX4 q $ O O : H.h.5X X. = z.2 OXaXgXgXgXgXgXgXgXgX1 gXgXgXgXgXgXgXgXgXgXgXgX",
"gXgXgXgXgXgXgXgXgXgXgXgXgXgXkXkXgXq 7Xq &   % 2 2 v.v.< & x.l.m.K.kXgXgXgXgXgXgXgXgXgXgXgXgXgXgXgXgXgXgXgXgX",
"gXgXgXgXgXgXgXgXgXgXgXgXgXgXgX&XmXzX1 gXw X ; O * < s.1 = v.v.d.k.{.gXgXN.gXgXgXgXgXgXgX1 gXgXgXgXgXgXgXgXgX",
"gXgXgXgXgXgXgXgXgXgXgXgXkXfXfX_.-X,X,X-XXX*.> + > ; , 4 $ d.l.2 2 z.gXgXgXgXgXgXgXgXgXgXgXgXgXgXgXgXgXgX1 gX",
"gXgXgXgXgXgXgXgXgXgXgXgXsX:X>X,X,X,X-X,X,X1X` ).|.*.9 $.. . X 3 f.V.gXgXgXgXgXgXgXgXgXgXgXgXgXgXCXgXgXgXgXgX",
"gXgXgXgX3 gXgXgXgXgXgXgX9.:X,X1Xp.,XBXnX,XhX).>XxX:X$Xa.w . & : f.B.gXgXgXgXgXN.gXgXgXgXgXgXgXCXY.CXgXgXgXgX",
"gXgXgXgXgXgXgXgXgXgXgX).R Y %X,X[.,X<XcXBXBXcX<Xt.J i.-X=Xw . & m.7XgXgXgXgXgXgXgXgXgXgXgXgXgXgXCXgXgXgXgXgX",
"gXgXgXgXgXgXgXgXgXgXhX} | Y i.>Xp.nXbX-X,X,X-X2XL i.;Xu.t.=Xe , V.4XwX{.7XN.gXkXgXgXgXgXgXgXgXgXgXgXgXgXgXgX",
"gXgXgXgXgXgXgXgXgXsXhX'./.R a.:X$XcXvXcX,XxXxX<XX.a.Q.y Y ,XW.> 8 K.3Xk.V.4XqX7XgXgXgX1 gXgXgXgXgXgXgXgXgXgX",
"gXgXCXgXgXgXgXgXtXR.`.[.w.Y a.,X,X:X[.*X-X-X-X2X@.N I ' n OX,   = 2 q X 5 F.H.H.gXgXgXgXgXgXgXgXgXgXgXgXgXgX",
"gXCXY.CXgXgXgXVX9.1.]...~ G B ! u.Q.0.a.-X-X%XdX_ <.<.K s o O .   O X X : 5 x.F.gXgXgXgXgXgXgXgXgXgXgXgXgXgX",
"gXgXCXkXgXgXCXU.6.I I U B ~ G ! u.p.E I I E E U L ~ F s Z 3.+ % q q   $ & ; 5 B.8XgXgXgXgXgXgXgXgXgXgXgXgXgX",
"gXgXgXgXgXgXgXa.^ F t H H H ~ ^ R O.o.o.E o.+.i.%.W B v -.*X3.` ' 9.Q.6 . * 3 3 D.0XlXgXgXI.gXgXgXgXgXgX1 gX",
"gXgXgXgXgXgXkX0.~ s i L K U D B K G @.4.4.+.+.i.%.t O.).&X].@.n ' r.q.Y # * % & 2 G.aXmXkXlXgXgX1 gXgX1 gXgX",
"gXgXgXgXgXgXgX0.L Z a L U ~ Z s H J U W +.+.W m &.Q 4.$X:.} ( a -.'.N P R 9 = % = 1 iXNXmXMXkXkXgX1 gX1 gXgX",
"gXgXgXgXgXgXkX2.H H L L H K ] %.K ) v C W +.o.@ y.i.+.n @ 5.) n R.q.B Y P B =., X O oXmXmXmXmXlXkX1 gXgXgXgX",
"gXgXN.gXgXgXgX0.U G L H H N #X;XU `.# b  .! o.p 3.4.W ! ^.}.| D R ^ G U H D `.4 X & & oXrXW.NXNX7XgXgXgXgXgX",
"gXgXgXgXgXgXgX0.H U L H H J ;.,.W dX# 1.e.S O.+.+.O.F _ '.(.R S U H H H H A g &X& : . n.n.- OXoX.XqX7XkXgXgX",
"gXgXgXgXgXgX1 0.K K S S H L a u ) [.d [  .S U X.W U U ^ | R U F F H H U B B H ] & l.< < h.2 , h.b.B.V.gXgXgX",
"gXgXgXgXgXgXwXm / [ ] r.( K T T / ..I Y ^ K W u.2.Y H G S S L I C L H G u.;.R b S.7 4 = * < = h.x.z.x.gXgXgX",
"gXgXgXgXgXgXgXc T :.&X[.) V | (.r.S K L G K Y >.w.| S U H H K A Y L H J &X!.m B kXW.8 5 & + 3 j.x.x.z.gXgXgX",
"gXgXgXgXgXgXgX2.M 9.dXw.Y S 2.].'.U G L H H F @ } _ S H L U ~ L L H H H 0.' a D gXgXS.c.5 = = 3 n.B.B.gXgXgX",
"gXgXgXgXgXgXgX2.D I b G H S | w...U H ~ H H H s G K H G ~ | Y ~ I s U ~ L A A D gXgX3Xb.z.5 j.3 ~.qX0XgXN.gX",
"gXgXgXgXgXgXgX2.U Y Y H H H R R U H H F F H H H Y H ~ D f [.| 5.' @ ..Y V F U D gXgXVXG.z.x.x.j.{.gXgXgXgXgX",
"gXgXgXgXgXgXgX2.K S B D U H U U G H ^ t s / H L H H L Z d /./ [ :.`.'.Y q.] t A sXVXY.MXF.x.b.x.3XkXgXgXgXgX",
"gXgXgXgXgXgXgX2._ T r | U H G G H U K %.R.w.J G G U L D v | ~ t :.}./.U '.;.t D sXgXCXgX4XG.L.B.4XgXgXgXgXgX",
"gXgXgXgXgXgXgX<.{ -.$./.) G U H U G B #XzX^.K | 5.R S ~ P S K M b q.Y J 7.{ D D 1XgXgX2 wXqXwX4XqXgXP.gXgXgX",
"gXgXP.gXgXgXgX<.Y 9.dX].) S H H ~ Y B *X[.| Y /.(.| S H Y Y U ~ F A Y D U U J ! 9XaXgXgXgXgXgXgXgXgXgXgXgXgX",
"gXgXgXgXgXgXgX2.G Z s H H H H H ~ H H ) ) H U U I Y L Z d /./ J H W } g ^.7.V <.OXeXrXpXgXgXgXgXgXgXgXgXgXgX",
"gXgXgXgXgXgXgXp.Y N D G G U H I A ~ H A D L Y I r T / ! `.[.w.Y V ^ w.sXdXe.j #.@X@XeXpXgXgXgXgXgXgXgXgXgXgX",
"gXgXgXgXgXgXCX'.%X_.6.K D Y F A v F ~ s v F Z T # R.e.^ /.e.).(.<.c ] dX_.j h Z.N.OXrXpXgXgXgXgXgXgXgXgXgXgX",
"gXgXgXgXgXgXgXnXnXcX_.D Z I v v Z I S ;.&.s m T ,.`.8.I  .T #./.8.# x ;.h h h A.N.N.8XT.gXgXgXgXgXgXgXgXgXgX",
"gXgXgXgXgXgXgXvXbX2Xi.v Z 9.-.g v v C y.;.u l v ).8.c #.9.x i ] 1.k j i l l C.A.N.N.8XpXgXgXgXgXgX1 gXgXgXgX",
"gXgXgXgXgXgXgXjXbX%XO.Q M &X+X` l l v Q [ m z h 8.Q u -.hXx j j k l #.z h w A.N.N.N.9XuXgXgXgXgXgXgXgXgXgXgX",
"gXgXgXgXgXgXgXjX1X:X%X3.! $.R.8.h j v I y.).h l l l h &.dX@ h l k z Z.Z.e N.N.N.T.N.@XwXgXgXgXgXgXgXgXgXgXgX",
"gXgXCXgXgXgXgXlX=Xt.t.t.p.j ' ..j j p 1.&XXXr k j i j l m i i 0 N.N.N.N.N.N.N.OX9X9X9XS.gXgXgXgXgXgXgXgXgXgX",
"gXCXY.CXgXtXtXoXW.$.*.>.T.w 0 *.0 0 w =.W.Z.9 0 >.E.E.E.>.E.E.XXN.N.N.N.N.N.OX@XqXgXqXgXgXgXgXgXgXgXgXgXgXgX",
"gXgXCXgXgXeXN.T.N.N.N.N.T.N.N.N.N.N.N.N.T.N.N.N.N.N.N.N.N.N.N.N.N.N.N.N.N.N.N.rXgXgXgXgXgXgXgXgXN.gXgXgX1 gX",
"gXgXgXgXkXrXuXrXN.N.N.N.N.N.N.N.N.N.N.N.N.N.N.N.N.N.N.N.N.N.N.N.N.N.N.N.N.tXtXtXgXgXgXgXgXd.gXgXgXgXgXgXgXgX",
"gXgX1 gXgXgXgXgX1 wXOXOX@X@X@XN.N.N.N.N.N.N.N.N.N.N.N.N.N.N.rXrXrXrXtXgXgXgXgXgXgX1 gXwXf.wXgXgXgXgXgXgXgXgX",
"gXgXgXgXgXgXgXgXgX1 aX5 wXgXgXgXaXOXeXeX9X9XeXeXeXeXeXeXeXeXwXgXgXgXgXgXgXgXgXgXgXgXgXgXgXgXgXgXgXgXgXgXgXgX",
"gXgXgXgXgXgXgXgXgX1 gXgXgXgXgXgXgXgXkXaXgXgX1 gXgXgXgXkXgXgXgXCXgXgXgXgXgXgXgXgXgXgX1 gXgXgXgXgXgXgXgXgXgXgX",
"gXgXgXgXgXgXgXgXgXgXgXgXgXgXgXgXgXgX1 kXgX1 gXgXgXgXgXgXgXgXCXY.CXgXgXgX1 gXgXgXgXgXgXgXgXgXgXgXgXgXgXCXgXgX",
"gXgXgXgXgXgXgXgXgXgXgXgXgXgXgXgXgXgXgX1 gX1 gXgXgXgXgXgXgXgXgXCXgXgXgXgXgXgXgXgXgXgXgXgXgXgX$.gXgXgXCXY.CXgX",
"gXgXgXN.gXgXgXgXgXgXgXgXgX5 gXgXgXgXgX1 gXgXgXgXgXgXgXgXgXgXgXgXgXgXgXgXgXgXgXgXgXgXgXgXgXgXgXgXgXgXgXCXgXgX",
"gXgXgXgXgXgXgXgXN.gXgXgXgXgXgXgXgXgXgXgXgXgXgXgXgXgXgXN.gXgXgXgXgXgXgXgXgXgXgXgXgXgXgXgXgXgXgXgXgXgXgXgXgXgX",
"gXgXgXgXgXgXgXgXgXgXgXgXgXgXgXgXgXgXgXgXgXgXgXgXgXgXgXgXgXgXgXgXgXgXgXgXgXgXgXgXgXgXgXgXgXgXgXgXgXgXgXgXgXgX"
};
